<svg width="73" height="73" viewBox="0 0 73 73" fill="none" xmlns="http://www.w3.org/2000/svg">
  <g clip-path="url(#clip0_3493_120)">
    <path d="M68.5 0.5H4.5C2.29086 0.5 0.5 2.29086 0.5 4.5V68.5C0.5 70.7091 2.29086 72.5 4.5 72.5H68.5C70.7091 72.5 72.5 70.7091 72.5 68.5V4.5C72.5 2.29086 70.7091 0.5 68.5 0.5Z" fill="#007BFF" fill-opacity="0.1" stroke="#007BFF" stroke-opacity="0.3"/>
    <path d="M40.8879 36.8843L39 37.9971V58L56 48.003V28L40.8879 36.8843Z" fill="#007BFF"/>
    <path d="M44 18.8198L37.1926 15 19 25.1803 25.8165 29 44 18.8198Z" fill="#007BFF"/>
    <path d="M55 25.4772L47.1636 21 29 31.5228 30.0364 32.0608 36.8364 36 43.6 32.0882 55 25.4772Z" fill="#007BFF"/>
    <path d="M27.6489 38.5887L24.4971 36.939V31.8105L18 28V48.003L35 58V37.997L27.6489 33.6844V38.5887Z" fill="#007BFF"/>
  </g>
  <defs>
    <clipPath id="clip0_3493_120">
      <rect width="73" height="73" fill="white"/>
    </clipPath>
  </defs>
</svg>
